<svg version="1.2" xmlns="http://www.w3.org/2000/svg" viewBox="0 0 1844 1984" width="1844" height="1984">
	<style>
		.s0 { fill: #d54d69 } 
		.s1 { fill: #fa597a } 
		.s2 { fill: #883143 } 
		.s3 { fill: #ae3e55 } 
	</style>
	<path class="s0" d="m1841.9 885.4l-104.7 69.5-33.3-182.7 110.9-22.2z"/>
	<path class="s0" d="m1805.9 706.2l-110.1 21.9-31.5-171.7 107.3-21.5z"/>
	<path class="s1" d="m1762.9 491l-106.7 21.3-27.9-153.5h108.2z"/>
	<path class="s2" d="m1083 845.8l-98.4-66.9c-5-3.3-11-4.5-17-3.3-5.8 1.1-11 4.6-14.4 9.6l-62.8 95.9-88.6-483.5 192.6-36.3z"/>
	<path class="s2" d="m1818.8 1773.6l-913.6 171.1-277-1514.7 129.8-24.2 98.6 538.4c1.6 9 8.5 16.1 17.5 17.9 1.5 0.4 2.9 0.4 4.4 0.4 7.4 0 14.6-3.5 18.8-10l81-123.7 123.7 83.9c7.4 5.1 17.2 5.1 24.8 0.2 7.4-4.9 11.4-13.9 9.6-22.6l-98.2-537.1 503.5-94.3c5.8-1.1 11.9 0.2 16.8 3.5 4.9 3.4 8.3 8.6 9.4 14.4l268.9 1470.6c2.2 12.1-5.9 23.9-18 26.2z"/>
	<path class="s2" d="m861.3 1953l-164.2 30.8c-6 1.1-11.8-0.2-16.7-3.6-5-3.3-8.3-8.4-9.4-14.5l-272.9-1492.5 186.3-35z"/>
	<path class="s2" d="m350 446.3l117.9 644.4-308.5-611.3 871.9-450.7c5.4-2.9 11.6-3.4 17.2-1.6 5.9 2 10.5 5.8 13.2 11.2l115.9 230.2-809.7 151.8c-12.1 2.3-20.1 13.9-17.9 26z"/>
	<path class="s2" d="m585.5 1735l-580.2-1150.2c-5.3-10.7-1.1-24.4 9.9-29.9l104.4-53.9 376.7 746.6z"/>
	<path class="s2" d="m1843.9 884.4l-104.7 69.5-33.3-182.7 110.9-22.2z"/>
	<path class="s0" d="m1805.9 689.2l-110.1 21.9-31.5-171.7 107.3-21.5z"/>
	<path class="s1" d="m1762.9 477l-106.7 21.3-27.9-153.5h108.2z"/>
	<path class="s3" d="m1083 821.8l-98.4-66.9c-5-3.3-11-4.5-17-3.3-5.8 1.1-11 4.6-14.4 9.6l-62.8 95.9-88.6-483.5 192.6-36.3z"/>
	<path class="s0" d="m1818.8 1741.6l-913.6 171.1-277-1514.7 129.8-24.2 98.6 538.4c1.6 9 8.5 16.1 17.5 17.9 1.5 0.4 2.9 0.4 4.4 0.4 7.4 0 14.6-3.5 18.8-10l81-123.7 123.7 83.9c7.4 5.1 17.2 5.1 24.8 0.2 7.4-4.9 11.4-13.9 9.6-22.6l-98.2-537.1 503.5-94.3c5.8-1.1 11.9 0.2 16.8 3.5 4.9 3.4 8.3 8.6 9.4 14.4l268.9 1470.6c2.2 12.1-5.9 23.9-18 26.2z"/>
	<path class="s0" d="m861.3 1921l-164.2 30.8c-6 1.1-11.8-0.2-16.7-3.6-5-3.3-8.3-8.4-9.4-14.5l-272.9-1492.5 186.3-35z"/>
	<path class="s3" d="m350 420.3l117.9 644.4-308.5-611.3 871.9-450.7c5.4-2.9 11.6-3.4 17.2-1.6 5.9 2 10.5 5.8 13.2 11.2l115.9 230.2-809.7 151.8c-12.1 2.3-20.1 13.9-17.9 26z"/>
	<path class="s3" d="m585.5 1695l-580.2-1150.2c-5.3-10.7-1.1-24.4 9.9-29.9l104.4-53.9 376.7 746.6z"/>
</svg>
